<svg id="レイヤー_1" data-name="レイヤー 1" xmlns="http://www.w3.org/2000/svg" viewBox="0 0 754.18 160"><defs><style>.cls-1{fill:#ec7969;}.cls-2{fill:#005773;}.cls-3{fill:#00aeeb;}.cls-4{fill:none;}</style></defs><polygon class="cls-1" points="72.56 107.91 72.56 107.91 72.56 80 72.56 80 72.56 80 72.56 80 72.56 80 72.56 80 24.19 52.09 24.19 107.91 24.18 107.91 48.37 121.86 48.37 93.96 72.56 107.91 72.56 107.91 72.56 107.91"/><polygon class="cls-2" points="72.56 80 72.56 80 72.56 80 72.56 107.91 96.74 93.95 96.74 93.95 96.75 93.95 96.75 93.95 96.75 93.96 96.75 121.86 120.93 107.91 120.93 107.91 120.93 52.09 72.56 80"/><polygon class="cls-3" points="96.75 93.96 96.75 93.95 96.75 93.95 96.74 93.95 96.74 93.95 72.56 107.91 72.56 107.91 72.56 107.91 72.56 107.91 72.56 135.81 96.75 121.86 96.75 121.86 96.75 121.86 96.75 93.96"/><polygon class="cls-3" points="72.56 80 72.56 80 72.56 80 72.56 80 72.56 80 96.75 66.05 96.75 66.05 96.75 66.05 96.75 66.05 96.75 66.05 96.75 66.05 96.75 66.05 96.75 38.14 96.75 38.14 96.75 38.14 96.75 38.14 96.74 38.14 72.56 24.18 72.56 80 72.56 80 72.56 80"/><path class="cls-2" d="M380.31,109.62c-10.73,0-21.6-7-21.6-20.27V52.11h11.74V89.35c0,6.1,3.32,9.2,9.86,9.2s9.87-3.1,9.87-9.2V52.11h11.74V89.35C401.92,102.66,391.05,109.62,380.31,109.62Z"/><path class="cls-2" d="M336.68,107.91l-12.26-22-9.95,0v22H303.73V52.1h26.64c8.94,0,16.49,7.73,16.49,16.89A17,17,0,0,1,336.71,84.6l-1.2.5,12.67,22.81ZM314.47,75.75l15.91,0a6,6,0,0,0,4.27-1.84,7,7,0,0,0,2.06-4.9c0-3.59-3-6.75-6.34-6.75l-15.9,0Z"/><polygon class="cls-2" points="252.55 107.91 252.55 52.1 290.75 52.1 290.75 62.23 264.62 62.23 264.62 74.27 288.09 74.27 288.09 84.41 264.62 84.41 264.62 97.78 290.75 97.78 290.75 107.91 252.55 107.91"/><polygon class="cls-2" points="472.74 107.91 472.74 52.1 510.94 52.1 510.94 62.23 484.81 62.23 484.81 74.27 508.28 74.27 508.28 84.41 484.81 84.41 484.81 97.78 510.94 97.78 510.94 107.91 472.74 107.91"/><polygon class="cls-2" points="691.79 107.91 691.79 52.1 729.99 52.1 729.99 62.23 703.87 62.23 703.87 74.27 727.34 74.27 727.34 84.41 703.87 84.41 703.87 97.78 729.99 97.78 729.99 107.91 691.79 107.91"/><rect class="cls-2" x="226.21" y="52.1" width="12.07" height="55.81"/><polygon class="cls-2" points="198.7 107.91 198.69 72.99 183.16 81.96 167.6 72.98 167.6 107.91 155.54 107.91 155.53 52.09 183.16 68.03 210.76 52.09 210.76 107.91 198.7 107.91"/><polygon class="cls-2" points="428.1 78.52 428.1 107.91 416.03 107.91 416.03 51.99 448.04 81.49 448.04 52.11 460.11 52.11 460.11 108.02 428.1 78.52"/><path class="cls-2" d="M663.44,108.93a42.82,42.82,0,0,1-21.79-6.32l-.44-.28,5-10.23.54.31c4.09,2.31,12.52,5.74,19,5.74,4,0,6.58-1.41,7.51-4.07a5.16,5.16,0,0,0-.21-4.43c-1.69-2.87-6.39-3.72-9.82-4.34l-1-.16c-10.56-1.54-15.31-5.85-17.43-9.21-1.76-2.77-3.39-7.41-1.2-13.82,1.54-4.51,5.34-8,10.7-9.77a25.87,25.87,0,0,1,8.24-1.28,35,35,0,0,1,16.67,4.42l.47.26-4,8.76-.54-.28a29.26,29.26,0,0,0-12.42-2.81c-5.2,0-8.6,1.55-9.56,4.36a5,5,0,0,0,.26,4.4c1.72,2.82,6.39,3.5,9.18,3.9.64.1,1,.16,1.34.22.75.17,1.51.32,2.29.47,5.41,1.08,11.52,2.29,15.86,9.31,1.72,2.77,3.28,7.41,1,13.76-1.7,4.7-5.41,8.09-10.72,9.81A29.05,29.05,0,0,1,663.44,108.93Z"/><path class="cls-2" d="M536.51,107.92V52.09h24.3A16.34,16.34,0,0,1,577,68.58a16.64,16.64,0,0,1-2.83,9.3l-.55.82.72.68a16.29,16.29,0,0,1,5.32,12,16.52,16.52,0,0,1-16.5,16.5Zm10.74-10.15h15.87a6.35,6.35,0,1,0,0-12.69H547.25Zm0-22.84h13.56a6.35,6.35,0,0,0,0-12.69H547.25Z"/><path class="cls-2" d="M625.61,107.92,621.8,97.64H597.92l-3.81,10.28H583.29L604,52.09h11.69l20.73,55.83ZM601.78,87.27H618L609.87,65.5Z"/><rect class="cls-4" width="754.18" height="160"/></svg>