<svg id="レイヤー_1" data-name="レイヤー 1" xmlns="http://www.w3.org/2000/svg" viewBox="0 0 96.75 111.63"><defs><style>.cls-1{fill:#ec7969;}.cls-2{fill:#005773;}.cls-3{fill:#00aeeb;}.cls-4{fill:none;}</style></defs><polygon class="cls-1" points="48.37 83.72 48.37 83.72 48.37 55.81 48.37 55.81 48.37 55.81 48.37 55.81 48.37 55.81 48.37 55.81 0 27.91 0 83.72 0 83.72 24.19 97.68 24.19 69.77 48.37 83.72 48.37 83.72 48.37 83.72"/><polygon class="cls-2" points="48.37 55.81 48.37 55.81 48.37 55.81 48.37 83.72 72.56 69.77 72.56 69.77 72.56 69.77 72.56 69.77 72.56 69.77 72.56 97.68 96.75 83.72 96.75 83.72 96.75 27.91 48.37 55.81"/><polygon class="cls-3" points="72.56 69.77 72.56 69.77 72.56 69.77 72.56 69.77 72.56 69.77 48.37 83.72 48.37 83.72 48.37 83.72 48.37 83.72 48.37 111.63 72.56 97.68 72.56 97.68 72.56 97.68 72.56 69.77"/><polygon class="cls-3" points="48.37 55.81 48.37 55.81 48.37 55.81 48.37 55.81 48.37 55.81 72.56 41.86 72.56 41.86 72.56 41.86 72.56 41.86 72.56 41.86 72.56 41.86 72.56 41.86 72.56 13.96 72.56 13.96 72.56 13.96 72.56 13.96 72.56 13.96 48.37 0 48.37 55.81 48.37 55.81 48.37 55.81"/><rect class="cls-4" x="-24.19" y="-24.19" width="754.18" height="160"/></svg>