<svg width="107" height="66" viewBox="0 0 107 66" fill="none" xmlns="http://www.w3.org/2000/svg">
<path d="M54.6641 0C69.8924 0 82.6398 10.5945 85.9482 24.8164C97.3003 24.8401 106.496 34.0506 106.496 45.4082L106.489 45.9395C106.207 57.0663 97.0986 65.999 85.9043 65.999C85.7449 65.999 85.5902 65.9956 85.4414 65.9922H66.3466C65.5672 65.9922 64.8588 65.5395 64.5315 64.8322L61.0976 57.4122C60.7909 56.7495 61.2749 55.9922 62.0051 55.9922H85.5234L85.5947 55.9941C85.7065 55.9973 85.8089 55.999 85.9043 55.999C91.5711 55.999 96.1986 51.5489 96.4824 45.9531L96.4961 45.4082C96.4961 39.5588 91.7537 34.8164 85.9043 34.8164C84.9164 34.8164 83.9656 34.9516 83.0654 35.2012L77.1289 36.8477L76.7393 30.6982C76.0077 19.146 66.4027 10 54.6641 10C47.9723 10.0001 41.9682 12.9721 37.9091 17.6742C37.5783 18.0575 37.0194 18.1557 36.5811 17.9022C34.2966 16.5808 31.8273 15.5426 29.2209 14.8346C28.5451 14.651 28.2261 13.8608 28.6371 13.2937C34.4713 5.24227 43.9519 0.000143019 54.6641 0Z" fill="#2E323F"/>
<path d="M21.0605 23.75C29.8579 23.7502 37.3935 29.1452 40.5439 36.8066L52.0225 61.6104C52.9425 63.5985 51.4905 65.8701 49.2998 65.8701H21.4102V65.8652C21.2938 65.8671 21.1773 65.8701 21.0605 65.8701C9.42953 65.8701 0.000261499 56.4415 0 44.8105C0 33.1794 9.42937 23.75 21.0605 23.75ZM21.5 36.3096C16.8056 36.3096 13 40.1152 13 44.8096C13 49.504 16.8056 53.3096 21.5 53.3096C26.1944 53.3096 30 49.504 30 44.8096C30 40.1152 26.1944 36.3096 21.5 36.3096Z" fill="#FB4B1F"/>
</svg>
