<svg id="レイヤー_1" data-name="レイヤー 1" xmlns="http://www.w3.org/2000/svg" viewBox="0 0 574.46 58.55"><defs><style>.cls-1{fill:#005773;}.cls-2{fill:none;}</style></defs><path class="cls-1" d="M224.78,58.55c-10.74,0-21.61-7-21.61-20.28V1h11.74V38.27c0,6.11,3.32,9.21,9.87,9.21s9.87-3.1,9.87-9.21V1h11.74V38.27C246.39,51.59,235.52,58.55,224.78,58.55Z"/><path class="cls-1" d="M181.15,56.84l-12.27-22-9.94,0V56.84H148.2V1h26.64c8.94,0,16.49,7.73,16.49,16.88a17,17,0,0,1-10.16,15.62L180,34l12.67,22.81ZM158.94,24.68l15.91,0a6,6,0,0,0,4.27-1.84,7,7,0,0,0,2.06-4.91,6.72,6.72,0,0,0-6.34-6.74l-15.9,0Z"/><polygon class="cls-1" points="97.02 56.84 97.02 1.02 135.21 1.02 135.21 11.16 109.09 11.16 109.09 23.2 132.56 23.2 132.56 33.34 109.09 33.34 109.09 46.7 135.21 46.7 135.21 56.84 97.02 56.84"/><polygon class="cls-1" points="317.21 56.84 317.21 1.02 355.4 1.02 355.4 11.16 329.27 11.16 329.27 23.2 352.75 23.2 352.75 33.34 329.27 33.34 329.27 46.7 355.4 46.7 355.4 56.84 317.21 56.84"/><polygon class="cls-1" points="536.26 56.84 536.26 1.02 574.46 1.02 574.46 11.16 548.33 11.16 548.33 23.2 571.8 23.2 571.8 33.34 548.33 33.34 548.33 46.7 574.46 46.7 574.46 56.84 536.26 56.84"/><rect class="cls-1" x="70.67" y="1.03" width="12.07" height="55.81"/><polygon class="cls-1" points="43.16 56.84 43.16 21.91 27.63 30.88 12.07 21.9 12.07 56.84 0 56.84 0 1.02 27.63 16.96 55.23 1.02 55.23 56.84 43.16 56.84"/><polygon class="cls-1" points="272.56 27.44 272.56 56.84 260.5 56.84 260.5 0.91 292.5 30.42 292.5 1.03 304.57 1.03 304.57 56.95 272.56 27.44"/><path class="cls-1" d="M507.91,57.86a42.82,42.82,0,0,1-21.79-6.32l-.44-.28,5-10.23.54.31c4.09,2.3,12.51,5.74,19,5.74,4,0,6.58-1.41,7.51-4.07a5.13,5.13,0,0,0-.21-4.43c-1.68-2.87-6.38-3.72-9.82-4.34l-1-.16c-10.55-1.54-15.3-5.86-17.43-9.21-1.75-2.77-3.38-7.42-1.2-13.82,1.54-4.51,5.34-8,10.7-9.78A26.2,26.2,0,0,1,507,0a35,35,0,0,1,16.67,4.42l.47.26-4,8.76-.54-.28a29.26,29.26,0,0,0-12.42-2.81c-5.21,0-8.6,1.55-9.56,4.35a5,5,0,0,0,.26,4.41c1.71,2.81,6.38,3.49,9.18,3.9.63.1,1,.16,1.34.22.74.17,1.5.32,2.28.47,5.41,1.08,11.53,2.29,15.87,9.31,1.71,2.77,3.27,7.41,1,13.75-1.7,4.71-5.41,8.1-10.72,9.82A29.1,29.1,0,0,1,507.91,57.86Z"/><path class="cls-1" d="M381,56.84V1h24.3a16.33,16.33,0,0,1,16.14,16.49,16.65,16.65,0,0,1-2.82,9.3l-.56.82.73.68a16.28,16.28,0,0,1,5.31,12,16.5,16.5,0,0,1-16.49,16.49ZM391.72,46.7h15.87a6.35,6.35,0,1,0,0-12.7H391.72Zm0-22.84h13.56a6.36,6.36,0,0,0,0-12.7H391.72Z"/><path class="cls-1" d="M470.08,56.84l-3.81-10.27H442.39l-3.81,10.27H427.76L448.49,1h11.68L480.9,56.84ZM446.25,36.2h16.17l-8.09-21.77Z"/><rect class="cls-2" x="-172.46" y="-50.61" width="754.18" height="160"/></svg>