<svg width="232" height="32" viewBox="0 0 232 32" fill="none" xmlns="http://www.w3.org/2000/svg">
<path d="M0.818182 4.27273H4.63636V11.9091H0.818182V4.27273ZM4.63636 11.9091H16.0909V15.7273H4.63636V11.9091ZM16.0909 27.1818V31H4.63636V27.1818H16.0909ZM4.63636 27.1818H0.818182V23.3636H4.63636V27.1818ZM16.0909 15.7273H19.9091V27.1818H16.0909V15.7273ZM4.63636 0.454545H16.0909V4.27273H4.63636V0.454545ZM16.0909 4.27273H19.9091V8.09091H16.0909V4.27273ZM31.3786 0.454545H35.1967V8.09091H46.6513V11.9091H35.1967V27.1818H31.3786V11.9091H27.5604V8.09091H31.3786V0.454545ZM35.1967 27.1818H42.8331V31H35.1967V27.1818ZM42.8331 23.3636H46.6513V27.1818H42.8331V23.3636ZM61.9389 8.09091V11.9091H65.7571V15.7273H61.9389V27.1818H69.5753V31H54.3026V27.1818H58.1207V11.9091H54.3026V8.09091H61.9389ZM73.3935 8.09091V11.9091H65.7571V8.09091H73.3935ZM81.0447 19.5455H84.8629V27.1818H81.0447V19.5455ZM84.8629 27.1818H92.4993V31H84.8629V27.1818ZM92.4993 23.3636H96.3175V19.5455H84.8629V15.7273H96.3175V11.9091H100.136V31H96.3175V27.1818H92.4993V23.3636ZM84.8629 8.09091H96.3175V11.9091H84.8629V8.09091ZM111.605 0.454545H115.423V8.09091H126.878V11.9091H115.423V27.1818H111.605V11.9091H107.787V8.09091H111.605V0.454545ZM115.423 27.1818H123.06V31H115.423V27.1818ZM123.06 23.3636H126.878V27.1818H123.06V23.3636ZM138.347 8.09091H149.802V11.9091H138.347V8.09091ZM149.802 11.9091H153.62V27.1818H149.802V11.9091ZM134.529 11.9091H138.347V27.1818H134.529V11.9091ZM138.347 27.1818H149.802V31H138.347V27.1818Z" fill="#5165FF"/>
<path d="M170.011 31.672C167.855 31.672 165.951 31.084 164.299 29.908C162.647 28.732 161.345 26.996 160.393 24.7C159.441 22.376 158.965 19.52 158.965 16.132C158.965 12.912 159.413 10.14 160.309 7.816C161.205 5.492 162.479 3.7 164.131 2.44C165.811 1.152 167.813 0.508 170.137 0.508C172.013 0.508 173.665 0.913999 175.093 1.726C176.521 2.538 177.711 3.686 178.663 5.17C179.643 6.654 180.343 8.39 180.763 10.378L176.185 10.672C175.765 8.852 175.051 7.396 174.043 6.304C173.063 5.212 171.775 4.666 170.179 4.666C168.779 4.666 167.575 5.114 166.567 6.01C165.587 6.878 164.831 8.166 164.299 9.874C163.795 11.582 163.543 13.668 163.543 16.132C163.543 18.568 163.809 20.64 164.341 22.348C164.873 24.028 165.643 25.316 166.651 26.212C167.687 27.08 168.933 27.514 170.389 27.514C171.677 27.514 172.783 27.192 173.707 26.548C174.631 25.876 175.345 24.952 175.849 23.776C176.381 22.572 176.675 21.186 176.731 19.618H170.179V15.796H180.805V31H177.235L177.025 24.154L178.159 24.112C177.851 25.54 177.347 26.828 176.647 27.976C175.975 29.124 175.093 30.034 174.001 30.706C172.909 31.35 171.579 31.672 170.011 31.672ZM185.913 31V26.842H193.053V5.338H185.913V1.18H204.561V5.338H197.421V26.842H204.561V31H185.913ZM220.798 31.672C218.642 31.672 216.752 31.238 215.128 30.37C213.532 29.502 212.258 28.298 211.306 26.758C210.354 25.19 209.794 23.37 209.626 21.298L214.162 21.004C214.358 22.432 214.75 23.636 215.338 24.616C215.926 25.596 216.696 26.338 217.648 26.842C218.6 27.318 219.706 27.556 220.966 27.556C222.198 27.556 223.234 27.402 224.074 27.094C224.914 26.758 225.558 26.282 226.006 25.666C226.454 25.05 226.678 24.308 226.678 23.44C226.678 22.544 226.468 21.76 226.048 21.088C225.628 20.416 224.872 19.8 223.78 19.24C222.688 18.68 221.092 18.106 218.992 17.518C216.948 16.958 215.282 16.328 213.994 15.628C212.706 14.928 211.768 14.06 211.18 13.024C210.592 11.988 210.298 10.7 210.298 9.16C210.298 7.452 210.69 5.954 211.474 4.666C212.286 3.35 213.434 2.328 214.918 1.6C216.43 0.871999 218.236 0.508 220.336 0.508C222.408 0.508 224.172 0.913999 225.628 1.726C227.112 2.538 228.274 3.672 229.114 5.128C229.982 6.556 230.514 8.236 230.71 10.168L226.174 10.42C226.034 9.272 225.712 8.264 225.208 7.396C224.732 6.528 224.074 5.856 223.234 5.38C222.394 4.876 221.386 4.624 220.21 4.624C218.558 4.624 217.242 5.03 216.262 5.842C215.31 6.626 214.834 7.662 214.834 8.95C214.834 9.818 215.03 10.532 215.422 11.092C215.814 11.652 216.5 12.156 217.48 12.604C218.46 13.052 219.832 13.514 221.596 13.99C223.976 14.634 225.866 15.376 227.266 16.216C228.666 17.056 229.674 18.064 230.29 19.24C230.906 20.416 231.214 21.816 231.214 23.44C231.214 25.064 230.78 26.506 229.912 27.766C229.044 28.998 227.826 29.964 226.258 30.664C224.718 31.336 222.898 31.672 220.798 31.672Z" fill="#373737"/>
</svg>
